<svg width="485" height="485" viewBox="0 0 485 485" fill="none" xmlns="http://www.w3.org/2000/svg">
<g clip-path="url(#clip0_1_19)">
<g clip-path="url(#clip1_1_19)">
<path d="M0 227.381C0 101.801 101.801 0 227.381 0C352.96 0 454.761 101.801 454.763 227.381C454.763 352.96 352.962 454.761 227.381 454.763C101.801 454.763 0 352.962 0 227.381ZM227.381 437.881C343.637 437.881 437.881 343.637 437.881 227.381C437.881 111.124 343.637 16.8798 227.381 16.8819C111.124 16.8819 16.8798 111.126 16.8819 227.381C16.8819 343.637 111.126 437.881 227.381 437.881Z" fill="#1890ff"/>
<path d="M227.382 452.489C351.705 452.489 452.489 351.705 452.489 227.382C452.489 103.058 351.705 2.2738 227.382 2.2738C103.058 2.2738 2.27383 103.058 2.27383 227.382C2.27383 351.705 103.058 452.489 227.382 452.489Z" fill="#4B91F1"/>
<g clip-path="url(#clip2_1_19)">
<g clip-path="url(#clip3_1_19)">
<path d="M241.798 190.554C251.258 190.554 258.927 182.885 258.927 173.425C258.927 163.965 251.258 156.296 241.798 156.296C232.338 156.296 224.669 163.965 224.669 173.425C224.669 182.885 232.338 190.554 241.798 190.554Z" fill="white"/>
<path d="M309.304 168.696C307.733 166.62 305.213 165.804 303.681 166.905L273.548 188.516C273.208 188.76 237.359 200.031 237.359 200.031C234.003 196.19 228.713 191.347 220.727 184.365C220.576 184.188 220.378 184.01 220.123 183.836C218.294 180.817 190.527 161.603 190.005 161.18L161.216 137.809C161.01 137.64 160.781 137.521 160.537 137.425L156.789 102.662C156.409 99.1376 153.418 96.5537 150.129 96.7482C146.837 96.9427 144.174 99.8634 144.215 103.408L144.88 163.752C144.886 164.37 162.122 219.241 162.122 219.241C162.758 221.3 163.916 223.039 165.35 224.429C165.336 224.473 165.319 224.513 165.304 224.557C159.622 226.023 156.173 232.059 157.48 238.173C157.48 238.173 165.458 290.759 165.47 290.791C165.507 291.395 174.275 352.331 174.275 352.331C174.783 355.838 177.866 358.314 181.147 357.998C184.428 357.682 186.982 354.665 186.814 351.126L183.94 290.846C183.832 288.591 182.654 252.866 182.654 252.866C230.415 250.875 241.798 216.132 241.798 216.132C241.83 215.995 241.851 215.873 241.88 215.737C241.88 215.737 279.952 198.187 280.524 197.731L309.502 174.598C310.976 173.42 310.878 170.772 309.304 168.696ZM182.445 207.341C181.707 206.841 163.388 166.414 163.388 166.414C163.37 166.376 163.333 166.35 163.312 166.315C163.385 165.125 162.061 151.55 162.061 151.55L180.366 168.046L206.237 191.515C205.435 196.471 205.325 202.896 206.353 210.909C206.353 210.909 204.376 222.13 182.445 207.341Z" fill="white"/>
</g>
</g>
</g>
</g>
</svg>
